<svg id="Group_8853" data-name="Group 8853" xmlns="http://www.w3.org/2000/svg" xmlns:xlink="http://www.w3.org/1999/xlink" width="180" height="180" viewBox="0 0 180 180">
  <defs>
    <clipPath id="clip-path">
      <rect id="Rectangle_3123" data-name="Rectangle 3123" width="180" height="180" fill="#69974c"/>
    </clipPath>
  </defs>
  <g id="Group_8851" data-name="Group 8851" clip-path="url(#clip-path)">
    <path id="Path_13552" data-name="Path 13552" d="M84.718,27.861C75.271,29.785,64.5,35.55,61.634,44.97a26.859,26.859,0,0,0,.3,16.964,26.867,26.867,0,0,0-16.964-.3C35.55,64.5,29.785,75.272,27.861,84.718c1.924,9.446,7.689,20.218,17.109,23.085a26.867,26.867,0,0,0,16.964-.3,26.855,26.855,0,0,0-.3,16.963c2.866,9.421,13.637,15.187,23.085,17.111,9.446-1.924,20.218-7.689,23.085-17.111a26.863,26.863,0,0,0-.3-16.963,26.863,26.863,0,0,0,16.963.3c9.42-2.867,15.187-13.638,17.109-23.085-1.922-9.446-7.689-20.219-17.109-23.085a26.863,26.863,0,0,0-16.963.3,26.867,26.867,0,0,0,.3-16.964c-2.867-9.42-13.638-15.186-23.085-17.109m0,18.393a10.7,10.7,0,0,0-4.726,5.266c-1.952,5.146,1.33,11.295,4.726,15.238,3.4-3.943,6.677-10.092,4.725-15.238a10.706,10.706,0,0,0-4.725-5.266M46.254,84.718a10.711,10.711,0,0,0,5.265,4.726c5.147,1.952,11.3-1.33,15.239-4.726-3.943-3.4-10.092-6.678-15.239-4.726a10.711,10.711,0,0,0-5.265,4.726m38.464,38.464a10.706,10.706,0,0,0,4.725-5.266c1.952-5.146-1.33-11.295-4.725-15.238-3.4,3.943-6.678,10.092-4.726,15.238a10.7,10.7,0,0,0,4.726,5.266m38.463-38.464a10.711,10.711,0,0,0-5.265-4.726c-5.146-1.952-11.3,1.33-15.238,4.726,3.942,3.4,10.092,6.678,15.238,4.726a10.711,10.711,0,0,0,5.265-4.726M84.718,80.176C74.38,72.228,66.345,61.5,69.842,48.659,71.683,41.894,77.93,37.6,84.718,35.374c6.789,2.224,13.034,6.52,14.875,13.285,3.5,12.844-4.538,23.569-14.875,31.516m-4.544,4.543C72.227,95.056,61.5,103.091,48.659,99.6,41.894,97.752,37.6,91.507,35.374,84.718c2.223-6.789,6.52-13.034,13.285-14.877,12.844-3.5,23.568,4.539,31.515,14.877m4.544,4.543c10.337,7.947,18.373,18.673,14.875,31.516-1.841,6.765-8.087,11.061-14.875,13.285-6.789-2.224-13.035-6.52-14.877-13.285-3.5-12.844,4.538-23.569,14.877-31.516m4.543-4.543c7.947-10.337,18.671-18.374,31.515-14.877,6.765,1.843,11.062,8.088,13.285,14.877-2.223,6.789-6.52,13.034-13.285,14.877-12.844,3.5-23.568-4.539-31.515-14.877" transform="translate(5.281 5.281)" fill="#69974c"/>
    <path id="Path_13553" data-name="Path 13553" d="M90,0c-3.973.394-7.607,3.239-10.229,6.9-3.5,5.63-4.4,12.8,1.615,17.088A22,22,0,0,0,90,27.472a22,22,0,0,0,8.612-3.481c6.014-4.284,5.121-11.458,1.617-17.088C97.606,3.239,93.973.394,90,0m90,90c-.394-3.973-3.24-7.607-6.9-10.229-5.63-3.5-12.8-4.4-17.088,1.617A22.01,22.01,0,0,0,152.527,90a22.017,22.017,0,0,0,3.482,8.612c4.284,6.014,11.458,5.121,17.088,1.617,3.663-2.622,6.509-6.256,6.9-10.229M90,180c3.973-.394,7.606-3.24,10.229-6.9,3.5-5.63,4.4-12.8-1.617-17.088A22,22,0,0,0,90,152.528a22,22,0,0,0-8.614,3.481c-6.013,4.284-5.12,11.458-1.615,17.088,2.622,3.663,6.256,6.509,10.229,6.9M0,90c.393,3.973,3.239,7.607,6.9,10.229,5.63,3.5,12.806,4.4,17.089-1.617A22.015,22.015,0,0,0,27.472,90a22.007,22.007,0,0,0-3.481-8.612C19.707,75.373,12.532,76.266,6.9,79.771,3.239,82.393.393,86.027,0,90M90,21.312C84.191,19.83,80.457,16.665,84.729,9.8,86.532,7.282,88.3,6.124,90,5.942c1.7.182,3.466,1.341,5.27,3.859,4.273,6.864.538,10.029-5.27,11.511M158.688,90c1.481-5.809,4.648-9.543,11.511-5.27,2.518,1.8,3.677,3.57,3.859,5.27-.182,1.7-1.341,3.468-3.859,5.27-6.864,4.273-10.03.539-11.511-5.27M90,158.688c5.807,1.482,9.543,4.648,5.27,11.511-1.8,2.518-3.57,3.677-5.27,3.859-1.7-.182-3.468-1.341-5.271-3.859-4.272-6.864-.538-10.029,5.271-11.511M21.312,90C19.83,95.808,16.663,99.543,9.8,95.27,7.282,93.467,6.123,91.7,5.942,90c.181-1.7,1.341-3.468,3.859-5.27,6.863-4.273,10.029-.539,11.511,5.27" fill="#69974c"/>
    <path id="Path_13554" data-name="Path 13554" d="M88.488,8.013a5.1,5.1,0,0,0-2.257.239,3.127,3.127,0,0,0-.467.17c-.086.034-.168.057-.256.094a2.277,2.277,0,0,0-.918.879l-.013.021a3.379,3.379,0,0,0-.232.416c-.023.049-.039.1-.059.151-.032.083-.075.171-.1.249-.011.034-.011.076-.019.113-.019.082-.029.168-.042.253s-.024.17-.027.259c0,.046-.014.09-.014.137a5.721,5.721,0,0,0,2.43,4.481,4.166,4.166,0,0,0,1.971.846,4.167,4.167,0,0,0,1.97-.846A5.726,5.726,0,0,0,92.889,11c0-.046-.013-.09-.015-.137,0-.089-.017-.172-.027-.259s-.021-.171-.042-.253c-.008-.037-.008-.079-.019-.113a2.356,2.356,0,0,0-.1-.249c-.02-.051-.037-.1-.059-.151a3.234,3.234,0,0,0-.232-.416L92.385,9.4a2.27,2.27,0,0,0-.918-.879c-.087-.037-.17-.059-.256-.094a3.079,3.079,0,0,0-.467-.17,5.091,5.091,0,0,0-2.255-.239m80.474,80.475a5.089,5.089,0,0,0-.238-2.255,3.144,3.144,0,0,0-.171-.469c-.033-.086-.056-.168-.094-.256a2.264,2.264,0,0,0-.878-.917.239.239,0,0,0-.023-.014,3.439,3.439,0,0,0-.415-.232c-.049-.023-.1-.039-.151-.058a2.667,2.667,0,0,0-.249-.1c-.036-.01-.077-.011-.113-.018-.083-.02-.169-.03-.255-.042a2.6,2.6,0,0,0-.258-.029c-.048,0-.09-.014-.138-.014a5.726,5.726,0,0,0-4.481,2.431,4.16,4.16,0,0,0-.845,1.97,4.16,4.16,0,0,0,.845,1.97,5.726,5.726,0,0,0,4.481,2.431c.048,0,.09-.012.138-.014a2.6,2.6,0,0,0,.258-.029c.086-.012.171-.021.255-.042.036-.007.077-.008.113-.018.077-.021.165-.064.249-.1.05-.019.1-.036.151-.058a3.441,3.441,0,0,0,.415-.232.239.239,0,0,0,.023-.014,2.264,2.264,0,0,0,.878-.917c.038-.088.061-.17.094-.256a3.144,3.144,0,0,0,.171-.469,5.089,5.089,0,0,0,.238-2.255M88.488,168.963a5.091,5.091,0,0,0,2.255-.239,3.078,3.078,0,0,0,.467-.17c.086-.034.169-.057.256-.094a2.275,2.275,0,0,0,.918-.878l.013-.023a3.235,3.235,0,0,0,.232-.416c.023-.049.039-.1.059-.151a2.356,2.356,0,0,0,.1-.249c.011-.034.011-.076.019-.113.02-.082.029-.168.042-.253s.024-.17.027-.259c0-.046.014-.09.015-.137a5.726,5.726,0,0,0-2.431-4.481,4.154,4.154,0,0,0-1.97-.845,4.153,4.153,0,0,0-1.971.845,5.721,5.721,0,0,0-2.43,4.481c0,.046.012.09.014.137,0,.089.017.172.027.259s.023.171.042.253c.008.037.008.079.019.113.021.077.064.165.1.249.02.051.037.1.059.151a3.381,3.381,0,0,0,.232.416l.013.023a2.282,2.282,0,0,0,.918.878c.088.037.17.059.256.094a3.125,3.125,0,0,0,.467.17,5.1,5.1,0,0,0,2.257.239M8.013,88.488a5.089,5.089,0,0,0,.238,2.255,3.145,3.145,0,0,0,.171.469c.033.086.057.168.094.256a2.264,2.264,0,0,0,.878.917.235.235,0,0,0,.023.014,3.44,3.44,0,0,0,.415.232c.05.023.1.039.151.058.083.033.171.076.249.1.036.01.077.011.113.018.083.02.169.03.255.042s.169.025.259.029c.046,0,.089.014.137.014a5.726,5.726,0,0,0,4.481-2.431,4.16,4.16,0,0,0,.845-1.97,4.16,4.16,0,0,0-.845-1.97A5.726,5.726,0,0,0,11,84.087c-.048,0-.09.012-.137.014-.09,0-.172.017-.259.029a2.579,2.579,0,0,0-.255.042c-.036.007-.077.008-.113.018a2.667,2.667,0,0,0-.249.1c-.05.019-.1.036-.151.058a3.438,3.438,0,0,0-.415.232.235.235,0,0,0-.023.014,2.263,2.263,0,0,0-.878.917c-.037.088-.061.17-.094.256a3.146,3.146,0,0,0-.171.469,5.089,5.089,0,0,0-.238,2.255M88.061,13.8c-.013-.01-.023-.02-.036-.031a.35.35,0,0,1,.186.1l-.15-.065M13.8,88.915c-.01.012-.021.023-.031.034a.333.333,0,0,1,.1-.184c-.027.062-.046.1-.065.15m75.114,74.261c.013.01.023.021.036.031a.35.35,0,0,1-.186-.1l.15.065m74.262-75.115.03-.035a.333.333,0,0,1-.1.184l.067-.15m-74.412-74.2a.35.35,0,0,1,.186-.1c-.013.011-.023.021-.036.031l-.15.065m-74.9,74.345a.333.333,0,0,1-.1-.184c.01.012.021.023.031.035.019.046.038.089.065.15m74.345,74.9a.35.35,0,0,1-.186.1c.013-.01.023-.021.036-.031l.15-.065m74.9-74.345a.333.333,0,0,1,.1.184l-.03-.034-.067-.15m-75.2-75.1,0,0c.165-.054.332-.115.506-.188a1.1,1.1,0,0,1-.5.19M13.666,89.07l0,0c-.055-.165-.115-.332-.189-.5a1.087,1.087,0,0,1,.192.5m75.4,74.241,0,0c-.165.054-.332.115-.5.188a1.094,1.094,0,0,1,.5-.19m74.239-75.4,0,0c.054.165.115.332.188.5a1.1,1.1,0,0,1-.192-.5M88.569,13.475c.173.073.339.134.5.188l0,0a1.094,1.094,0,0,1-.5-.19M13.474,88.407c.074-.172.134-.339.189-.5l0,0a1.087,1.087,0,0,1-.192.5M88.407,163.5c-.174-.073-.34-.134-.506-.188l0,0a1.1,1.1,0,0,1,.5.19M163.5,88.569c-.073.172-.134.339-.188.5l0,0a1.1,1.1,0,0,1,.192-.5" transform="translate(1.512 1.512)" fill="#69974c"/>
  </g>
</svg>
