<svg xmlns="http://www.w3.org/2000/svg" xmlns:xlink="http://www.w3.org/1999/xlink" width="1752.869" height="1752.869" viewBox="0 0 1752.869 1752.869">
  <defs>
    <clipPath id="clip-path">
      <rect id="Rectangle_3122" data-name="Rectangle 3122" width="1239.465" height="1239.465" fill="#edf4dd"/>
    </clipPath>
  </defs>
  <g id="زخرفة" transform="translate(739.031 355.776)">
    <g id="Group_8850" data-name="Group 8850" transform="translate(137.404 -355.776) rotate(45)" opacity="0.4">
      <g id="Group_8849" data-name="Group 8849" clip-path="url(#clip-path)">
        <path id="Path_13530" data-name="Path 13530" d="M593.334,100.311c-96.272,19.168-172.122,120.018-218.575,208.2-5.439-62.442-18.725-125.719-45.8-181.28C300.178,68.152,236.36,3.671,165.3,3.671c-40.784,0-79.627,21.617-110.549,51.072C25.288,85.674,3.671,124.508,3.671,165.3c0,71.059,64.49,134.877,123.557,163.653,55.561,27.072,118.847,40.358,181.289,45.805-88.179,46.444-189.037,122.3-208.2,218.575,19.159,96.272,120.018,172.123,208.2,218.575-62.442,5.439-125.727,18.725-181.289,45.8C68.161,886.49,3.671,950.308,3.671,1021.367c0,40.784,21.617,79.627,51.081,110.549C85.674,1161.38,124.516,1183,165.3,1183c71.059,0,134.877-64.49,163.661-123.557,27.072-55.561,40.358-118.847,45.8-181.288,46.453,88.179,122.3,189.037,218.575,208.2,96.272-19.159,172.131-120.018,218.575-208.2,5.447,62.442,18.733,125.727,45.805,181.288C886.49,1118.507,950.308,1183,1021.367,1183c40.792,0,79.627-21.617,110.557-51.081,29.456-30.922,51.072-69.765,51.072-110.549,0-71.059-64.482-134.877-123.557-163.661-55.561-27.072-118.838-40.358-181.28-45.8,88.179-46.453,189.029-122.3,208.2-218.575-19.167-96.272-120.018-172.131-208.2-218.575,62.442-5.447,125.719-18.733,181.28-45.805C1118.515,300.178,1183,236.36,1183,165.3c0-40.792-21.617-79.627-51.072-110.557-30.93-29.456-69.765-51.072-110.557-51.072-71.059,0-134.877,64.481-163.653,123.557-27.072,55.561-40.358,118.838-45.805,181.28-46.444-88.179-122.3-189.029-218.575-208.2M413.954,413.954a1282.307,1282.307,0,0,1,179.38,66.931,1283.078,1283.078,0,0,1,179.38-66.931,1283.069,1283.069,0,0,1-66.931,179.38,1282.308,1282.308,0,0,1,66.931,179.38,1284.152,1284.152,0,0,1-179.38-66.939,1283.38,1283.38,0,0,1-179.38,66.939,1283.389,1283.389,0,0,1,66.939-179.38,1284.151,1284.151,0,0,1-66.939-179.38M194.969,194.969a60.943,60.943,0,0,1,7.733,7.724,61.5,61.5,0,0,1-7.733-7.724m796.729,0a61.428,61.428,0,0,1-7.724,7.724,61.434,61.434,0,0,1,7.724-7.724m0,796.729a61.508,61.508,0,0,1-7.724-7.733A60.95,60.95,0,0,1,991.7,991.7m-796.729,0a61.026,61.026,0,0,1,7.733-7.733,61.016,61.016,0,0,1-7.733,7.733M593.334,315.29a27.21,27.21,0,0,0-6.971.156c-32.454,4.472-51.875,50.278-64.285,79.947q-15.039-5.775-30.144-11.156c18.791-39.793,56.749-108.9,101.4-112.286,44.659,3.383,82.609,72.492,101.4,112.286q-15.088,5.406-30.144,11.156c-12.4-29.669-31.831-75.474-64.285-79.947a27.205,27.205,0,0,0-6.971-.156M871.377,593.334a27.2,27.2,0,0,0-.156-6.971c-4.472-32.454-50.278-51.883-79.946-64.285q5.775-15.051,11.156-30.144c39.793,18.791,108.9,56.741,112.286,101.4-3.383,44.651-72.492,82.609-112.286,101.4q-5.406-15.1-11.156-30.144c29.669-12.41,75.474-31.831,79.946-64.285a27.211,27.211,0,0,0,.156-6.971M593.334,871.377a27.229,27.229,0,0,0,6.971-.164c32.454-4.464,51.883-50.27,64.285-79.938q15.051,5.763,30.144,11.156c-18.791,39.785-56.741,108.894-101.4,112.286-44.65-3.391-82.609-72.5-101.4-112.286q15.1-5.418,30.144-11.156c12.41,29.669,31.831,75.474,64.285,79.938a27.235,27.235,0,0,0,6.971.164M315.29,593.334a27.237,27.237,0,0,0,.164,6.971c4.464,32.454,50.27,51.875,79.938,64.285q-5.763,15.039-11.156,30.144c-39.785-18.791-108.894-56.749-112.286-101.4,3.391-44.659,72.5-82.609,112.286-101.4q5.418,15.088,11.156,30.144c-29.669,12.4-75.474,31.831-79.938,64.285a27.229,27.229,0,0,0-.164,6.971M593.334,219.707c-22.886,6.348-44.847,21.5-59.812,35.755-33.281,31.692-57.027,75.327-75.8,117.036q-32.278-10.567-65.006-19.249c38.9-80.954,108.485-185.671,200.62-200.3,92.135,14.63,161.72,119.346,200.62,200.3q-32.745,8.662-65.006,19.249c-18.774-41.71-42.521-85.345-75.8-117.036-14.957-14.253-36.926-29.407-59.812-35.755M966.961,593.334c-6.348-22.886-21.5-44.855-35.755-59.812-31.692-33.281-75.327-57.027-117.036-75.8q10.567-32.278,19.249-65.006c80.954,38.9,185.671,108.485,200.3,200.62-14.629,92.135-119.346,161.72-200.3,200.62q-8.662-32.757-19.249-65.006c41.71-18.774,85.345-42.521,117.036-75.8,14.253-14.965,29.407-36.926,35.755-59.812M593.334,966.953c22.886-6.348,44.855-21.494,59.813-35.747,33.281-31.692,57.027-75.327,75.8-117.045q32.278,10.567,65.006,19.258c-38.9,80.954-108.485,185.663-200.62,200.3-92.135-14.638-161.72-119.346-200.62-200.3q32.757-8.675,65.006-19.258c18.774,41.718,42.521,85.353,75.8,117.045,14.965,14.253,36.926,29.4,59.812,35.747M219.715,593.334c6.348,22.886,21.494,44.847,35.747,59.813,31.692,33.281,75.327,57.027,117.045,75.8q-10.567,32.278-19.258,65.006c-80.954-38.9-185.663-108.485-200.3-200.62,14.638-92.135,119.346-161.72,200.3-200.62q8.675,32.745,19.258,65.006c-41.718,18.774-85.353,42.521-117.045,75.8-14.253,14.957-29.4,36.926-35.747,59.812m47.7-325.929c-3.965-24.631-10.264-48.771-20.314-70.912-13.974-30.766-44.061-69.011-81.8-69.372-10.624-.106-20.691,3-29.988,8.191-5.185,9.289-8.29,19.364-8.191,29.988.369,37.729,38.613,67.815,69.38,81.79,22.141,10.059,46.281,16.358,70.912,20.314m0,651.851c-24.631,3.965-48.771,10.264-70.912,20.314-30.766,13.974-69.011,44.061-69.38,81.8-.1,10.624,3.006,20.691,8.191,29.988,9.3,5.185,19.364,8.29,29.988,8.191,37.737-.369,67.823-38.613,81.8-69.38,10.051-22.141,16.35-46.28,20.314-70.912m651.851,0c3.956,24.631,10.255,48.771,20.314,70.912,13.974,30.766,44.061,69.011,81.79,69.38,10.624.1,20.7-3.006,29.988-8.191,5.193-9.3,8.3-19.364,8.191-29.988-.36-37.737-38.605-67.823-69.372-81.8-22.141-10.051-46.281-16.35-70.912-20.314m0-651.851c24.631-3.956,48.771-10.255,70.912-20.314,30.766-13.974,69.011-44.061,69.372-81.79.106-10.624-3-20.7-8.191-29.988-9.289-5.193-19.364-8.3-29.988-8.191-37.729.36-67.815,38.605-81.79,69.372-10.059,22.141-16.358,46.281-20.314,70.912M89.417,89.417c22.067-17.275,47.8-28.563,75.884-28.563,63.114,0,115.284,58.191,138.743,111.122C327.192,224.2,337.5,283.394,340.65,340.642c-57.249-3.145-116.439-13.45-168.666-36.6C119.045,280.576,60.854,228.414,60.854,165.3c0-28.088,11.288-53.816,28.563-75.884m0,1007.834c-17.275-22.067-28.563-47.8-28.563-75.884,0-63.114,58.191-115.284,111.131-138.743,52.227-23.148,111.417-33.461,168.666-36.607-3.145,57.249-13.458,116.439-36.607,168.666-23.46,52.94-75.63,111.13-138.743,111.13-28.08,0-53.816-11.288-75.884-28.563m1007.834,0c-22.067,17.275-47.8,28.563-75.884,28.563-63.114,0-115.275-58.191-138.743-111.13-23.148-52.227-33.453-111.417-36.6-168.666,57.249,3.145,116.438,13.458,168.666,36.607,52.932,23.46,111.122,75.63,111.122,138.743,0,28.08-11.288,53.816-28.563,75.884m0-1007.834c17.275,22.067,28.563,47.8,28.563,75.884,0,63.114-58.191,115.275-111.122,138.743-52.227,23.148-111.417,33.453-168.666,36.6,3.145-57.249,13.45-116.438,36.6-168.666,23.468-52.932,75.63-111.122,138.743-111.122,28.088,0,53.816,11.288,75.884,28.563" transform="translate(26.399 26.399)" fill="#edf4dd"/>
        <path id="Path_13531" data-name="Path 13531" d="M115.632,223.794c36.246-39.228,87.065-80.97,98.1-136.155,9.346-46.747-26.089-75.892-67.954-85.631C106.171-4.554,61.857,3.564,49.12,47.42c-16.1,55.471,17.693,117.978,36.32,168.4,4.448,12.033,20.273,18.709,30.193,7.97M136.168,36.845c84.779,19.725,15.8,96.911-26.908,141.389C86.611,120.731,52.6,23.01,136.168,36.845" transform="translate(322.836 -0.001)" fill="#edf4dd"/>
        <path id="Path_13532" data-name="Path 13532" d="M223.794,185.235c-39.228-36.246-80.97-87.065-136.155-98.1C40.891,77.79,11.747,113.226,2.008,155.091c-6.561,39.6,1.556,83.919,45.412,96.657,55.471,16.1,117.978-17.693,168.4-36.32,12.033-4.448,18.709-20.273,7.97-30.193M36.845,164.7c19.725-84.779,96.911-15.8,141.389,26.908C120.731,214.256,23.01,248.266,36.845,164.7" transform="translate(-0.001 615.762)" fill="#edf4dd"/>
        <path id="Path_13533" data-name="Path 13533" d="M185.235,128.729c-36.246,39.228-87.065,80.97-98.1,136.155-9.346,46.747,26.089,75.892,67.955,85.631,39.6,6.561,83.919-1.556,96.657-45.412,16.1-55.471-17.693-117.978-36.32-168.4-4.448-12.033-20.273-18.709-30.193-7.97M164.7,315.678c-84.779-19.724-15.809-96.911,26.908-141.389,22.649,57.5,56.659,155.224-26.908,141.389" transform="translate(615.762 886.943)" fill="#edf4dd"/>
        <path id="Path_13534" data-name="Path 13534" d="M128.729,115.632c39.228,36.246,80.97,87.065,136.155,98.1,46.747,9.346,75.892-26.089,85.631-67.954,6.561-39.6-1.556-83.919-45.412-96.657-55.471-16.1-117.978,17.693-168.4,36.32-12.033,4.448-18.709,20.273-7.97,30.193m186.949,20.535c-19.724,84.779-96.911,15.809-141.389-26.908,57.5-22.649,155.224-56.659,141.389,26.908" transform="translate(886.943 322.836)" fill="#edf4dd"/>
        <path id="Path_13535" data-name="Path 13535" d="M185.235,223.794c-36.246-39.228-87.065-80.97-98.1-136.155C77.79,40.891,113.226,11.747,155.091,2.008c39.6-6.561,83.919,1.556,96.657,45.412,16.1,55.471-17.693,117.978-36.32,168.4-4.448,12.033-20.273,18.709-30.193,7.97M164.7,36.845C79.92,56.569,148.89,133.756,191.608,178.234c22.649-57.5,56.659-155.224-26.908-141.389" transform="translate(615.762 -0.001)" fill="#edf4dd"/>
        <path id="Path_13536" data-name="Path 13536" d="M223.794,115.632c-39.228,36.246-80.97,87.065-136.155,98.1-46.747,9.346-75.892-26.089-85.631-67.954-6.561-39.6,1.556-83.919,45.412-96.657,55.471-16.1,117.978,17.693,168.4,36.32,12.033,4.448,18.709,20.273,7.97,30.193M36.845,136.168c19.725,84.779,96.911,15.809,141.389-26.908C120.731,86.611,23.01,52.6,36.845,136.168" transform="translate(-0.001 322.836)" fill="#edf4dd"/>
        <path id="Path_13537" data-name="Path 13537" d="M115.632,128.729c36.246,39.228,87.065,80.97,98.1,136.155,9.346,46.747-26.089,75.892-67.954,85.631-39.6,6.561-83.919-1.556-96.657-45.412-16.1-55.471,17.693-117.978,36.32-168.4,4.448-12.033,20.273-18.709,30.193-7.97m20.535,186.949c84.779-19.724,15.8-96.911-26.908-141.389-22.649,57.5-56.659,155.224,26.908,141.389" transform="translate(322.836 886.943)" fill="#edf4dd"/>
        <path id="Path_13538" data-name="Path 13538" d="M128.729,185.235c39.228-36.246,80.97-87.065,136.155-98.1,46.747-9.346,75.892,26.089,85.631,67.955,6.561,39.6-1.556,83.919-45.412,96.657-55.471,16.1-117.978-17.693-168.4-36.32-12.033-4.448-18.709-20.273-7.97-30.193M315.678,164.7c-19.724-84.779-96.911-15.8-141.389,26.908,57.5,22.649,155.224,56.659,141.389-26.908" transform="translate(886.943 615.762)" fill="#edf4dd"/>
        <path id="Path_13539" data-name="Path 13539" d="M70.7,62.182c6.2,1.393,11.869,1.483,17.759-1A22.96,22.96,0,0,0,101.63,45.234c2.695-11.689.016-25.311-8.65-33.854a17.1,17.1,0,0,0-3.6-2.629C85.263,5.981,80.242,4.761,75.4,6.727c-.139.057-.246.123-.377.18A15.891,15.891,0,0,0,69.217,9.84a32.539,32.539,0,0,0-9.952,9.06,44.373,44.373,0,0,0-5.93,12.189A23.935,23.935,0,0,0,70.7,62.182m17.013-21.83A7.2,7.2,0,0,1,85,41.572c.95-.385,1.843-.795,2.711-1.22" transform="translate(374.421 41.438)" fill="#edf4dd"/>
        <path id="Path_13540" data-name="Path 13540" d="M62.181,125.011c1.393-6.2,1.483-11.869-1-17.759A22.977,22.977,0,0,0,45.233,94.081c-11.7-2.695-25.311-.016-33.863,8.65a17.7,17.7,0,0,0-2.629,3.6c-2.76,4.12-3.981,9.141-2.015,13.982.057.139.123.246.18.377a15.89,15.89,0,0,0,2.932,5.808,32.539,32.539,0,0,0,9.06,9.952,44.376,44.376,0,0,0,12.189,5.93,23.935,23.935,0,0,0,31.094-17.365M40.351,108a7.205,7.205,0,0,1,1.221,2.711c-.385-.95-.795-1.843-1.221-2.711" transform="translate(41.43 669.335)" fill="#edf4dd"/>
        <path id="Path_13541" data-name="Path 13541" d="M125.01,139.522c-6.2-1.393-11.869-1.483-17.759,1A23,23,0,0,0,94.08,156.469c-2.695,11.7-.016,25.311,8.65,33.863a17.692,17.692,0,0,0,3.6,2.629c4.12,2.761,9.141,3.981,13.982,2.015.139-.057.246-.123.377-.18a15.889,15.889,0,0,0,5.808-2.932,32.54,32.54,0,0,0,9.952-9.06,44.374,44.374,0,0,0,5.93-12.189,23.935,23.935,0,0,0-17.365-31.094M108,161.351a7.2,7.2,0,0,1,2.711-1.221c-.95.385-1.835.795-2.711,1.221" transform="translate(669.328 996.333)" fill="#edf4dd"/>
        <path id="Path_13542" data-name="Path 13542" d="M139.521,70.7c-1.392,6.2-1.483,11.869,1,17.759a22.98,22.98,0,0,0,15.948,13.172c11.689,2.695,25.311.016,33.854-8.65a17.1,17.1,0,0,0,2.629-3.6c2.769-4.12,3.989-9.141,2.023-13.982-.057-.139-.123-.246-.18-.377a15.891,15.891,0,0,0-2.932-5.808,32.539,32.539,0,0,0-9.06-9.952,44.373,44.373,0,0,0-12.188-5.93A23.935,23.935,0,0,0,139.521,70.7m21.83,17.013A7.2,7.2,0,0,1,160.13,85c.385.95.795,1.835,1.22,2.711" transform="translate(996.326 374.428)" fill="#edf4dd"/>
        <path id="Path_13543" data-name="Path 13543" d="M125.01,62.182c-6.2,1.393-11.869,1.483-17.759-1A22.98,22.98,0,0,1,94.08,45.234c-2.695-11.689-.016-25.311,8.65-33.854a17.1,17.1,0,0,1,3.6-2.629c4.12-2.769,9.141-3.989,13.982-2.023.139.057.246.123.377.18a15.891,15.891,0,0,1,5.808,2.932,32.539,32.539,0,0,1,9.952,9.06,44.375,44.375,0,0,1,5.93,12.189A23.935,23.935,0,0,1,125.01,62.182M108,40.352a7.2,7.2,0,0,0,2.711,1.22c-.95-.385-1.835-.795-2.711-1.22" transform="translate(669.328 41.438)" fill="#edf4dd"/>
        <path id="Path_13544" data-name="Path 13544" d="M62.181,70.7c1.393,6.2,1.483,11.869-1,17.759a23,23,0,0,1-15.948,13.172c-11.7,2.695-25.311.016-33.863-8.65a17.7,17.7,0,0,1-2.629-3.6C5.981,85.264,4.76,80.243,6.726,75.4c.057-.139.123-.246.18-.377a15.891,15.891,0,0,1,2.932-5.808,32.54,32.54,0,0,1,9.06-9.952,44.373,44.373,0,0,1,12.189-5.93A23.935,23.935,0,0,1,62.181,70.7M40.351,87.714A7.205,7.205,0,0,0,41.572,85c-.385.95-.795,1.835-1.221,2.711" transform="translate(41.43 374.428)" fill="#edf4dd"/>
        <path id="Path_13545" data-name="Path 13545" d="M70.7,139.522c6.2-1.393,11.869-1.483,17.759,1a22.976,22.976,0,0,1,13.172,15.948c2.695,11.7.016,25.311-8.65,33.863a17.692,17.692,0,0,1-3.6,2.629c-4.12,2.761-9.141,3.981-13.982,2.015-.139-.057-.246-.123-.377-.18a15.889,15.889,0,0,1-5.808-2.932,32.54,32.54,0,0,1-9.952-9.06,44.373,44.373,0,0,1-5.93-12.189A23.935,23.935,0,0,1,70.7,139.522m17.013,21.83A7.2,7.2,0,0,0,85,160.131c.95.385,1.843.795,2.711,1.221" transform="translate(374.421 996.333)" fill="#edf4dd"/>
        <path id="Path_13546" data-name="Path 13546" d="M139.521,125.011c-1.392-6.2-1.483-11.869,1-17.759a22.961,22.961,0,0,1,15.948-13.172c11.689-2.695,25.311-.016,33.854,8.65a17.1,17.1,0,0,1,2.629,3.6c2.769,4.12,3.989,9.141,2.023,13.982-.057.139-.123.246-.18.377a15.89,15.89,0,0,1-2.932,5.808,32.538,32.538,0,0,1-9.06,9.952,44.375,44.375,0,0,1-12.188,5.93,23.935,23.935,0,0,1-31.094-17.365M161.35,108a7.205,7.205,0,0,0-1.22,2.711c.385-.95.795-1.843,1.22-2.711" transform="translate(996.326 669.335)" fill="#edf4dd"/>
        <path id="Path_13547" data-name="Path 13547" d="M114.541,114.541a28.881,28.881,0,0,0,17.636-18.348,27.172,27.172,0,0,0-13.434-31.864c-13-6.651-30.095-2.015-36.639,11.4a28.784,28.784,0,0,0-1.777,4.6,28.784,28.784,0,0,0-4.6,1.777c-13.417,6.545-18.054,23.64-11.4,36.639a27.172,27.172,0,0,0,31.864,13.434,28.881,28.881,0,0,0,18.348-17.636" transform="translate(440.98 440.98)" fill="#edf4dd"/>
        <path id="Path_13548" data-name="Path 13548" d="M99.974,114.541a28.881,28.881,0,0,0,18.348,17.636,27.172,27.172,0,0,0,31.864-13.434c6.651-13,2.015-30.095-11.4-36.639a28.787,28.787,0,0,0-4.6-1.777,28.791,28.791,0,0,0-1.777-4.6c-6.545-13.417-23.64-18.054-36.639-11.4A27.172,27.172,0,0,0,82.338,96.193a28.881,28.881,0,0,0,17.636,18.348" transform="translate(583.97 440.98)" fill="#edf4dd"/>
        <path id="Path_13549" data-name="Path 13549" d="M99.974,99.974a28.881,28.881,0,0,0-17.636,18.348,27.172,27.172,0,0,0,13.434,31.864c13,6.651,30.095,2.015,36.639-11.4a28.794,28.794,0,0,0,1.777-4.6,28.794,28.794,0,0,0,4.6-1.777c13.417-6.545,18.054-23.64,11.4-36.639a27.172,27.172,0,0,0-31.864-13.434A28.881,28.881,0,0,0,99.974,99.974" transform="translate(583.97 583.97)" fill="#edf4dd"/>
        <path id="Path_13550" data-name="Path 13550" d="M114.541,99.974A28.881,28.881,0,0,0,96.193,82.338,27.172,27.172,0,0,0,64.329,95.772c-6.651,13-2.015,30.095,11.4,36.639a28.791,28.791,0,0,0,4.6,1.777,28.787,28.787,0,0,0,1.777,4.6c6.545,13.417,23.64,18.054,36.639,11.4a27.172,27.172,0,0,0,13.434-31.864,28.881,28.881,0,0,0-17.636-18.348" transform="translate(440.98 583.97)" fill="#edf4dd"/>
        <path id="Path_13551" data-name="Path 13551" d="M104.632,71.629a102.3,102.3,0,0,0-21.346,6.782c-1.122.5-2.22,1.024-3.3,1.573-.549,1.081-1.065,2.179-1.573,3.293a102.376,102.376,0,0,0-6.782,21.355,102.305,102.305,0,0,0,6.782,21.346c.508,1.122,1.024,2.22,1.573,3.3,1.081.541,2.179,1.065,3.3,1.565a101.839,101.839,0,0,0,21.346,6.79,101.912,101.912,0,0,0,21.355-6.79q1.671-.75,3.293-1.565c.549-1.081,1.073-2.179,1.573-3.3a102.3,102.3,0,0,0,6.782-21.346,102.374,102.374,0,0,0-6.782-21.355q-.75-1.671-1.573-3.293-1.622-.823-3.293-1.573a102.377,102.377,0,0,0-21.355-6.782" transform="translate(515.101 515.101)" fill="#edf4dd"/>
      </g>
    </g>
  </g>
</svg>
